<svg width="106" height="20" viewBox="0 0 106 20" fill="none" xmlns="http://www.w3.org/2000/svg">
<path d="M12.08 19.5C11.008 17.596 9.848 15.716 8.6 13.86C7.352 12.004 6.024 10.252 4.616 8.604V19.5H0.92V2.868H3.968C4.496 3.396 5.08 4.044 5.72 4.812C6.36 5.58 7.008 6.404 7.664 7.284C8.336 8.148 9 9.052 9.656 9.996C10.312 10.924 10.928 11.82 11.504 12.684V2.868H15.224V19.5H12.08ZM18.7006 13.284C18.7006 12.164 18.8686 11.188 19.2046 10.356C19.5566 9.508 20.0126 8.804 20.5726 8.244C21.1326 7.684 21.7726 7.26 22.4926 6.972C23.2286 6.684 23.9806 6.54 24.7486 6.54C26.5406 6.54 27.9566 7.092 28.9966 8.196C30.0366 9.284 30.5566 10.892 30.5566 13.02C30.5566 13.228 30.5486 13.46 30.5326 13.716C30.5166 13.956 30.5006 14.172 30.4846 14.364H22.3726C22.4526 15.1 22.7966 15.684 23.4046 16.116C24.0126 16.548 24.8286 16.764 25.8526 16.764C26.5086 16.764 27.1486 16.708 27.7726 16.596C28.4126 16.468 28.9326 16.316 29.3326 16.14L29.8126 19.044C29.6206 19.14 29.3646 19.236 29.0446 19.332C28.7246 19.428 28.3646 19.508 27.9646 19.572C27.5806 19.652 27.1646 19.716 26.7166 19.764C26.2686 19.812 25.8206 19.836 25.3726 19.836C24.2366 19.836 23.2446 19.668 22.3966 19.332C21.5646 18.996 20.8686 18.54 20.3086 17.964C19.7646 17.372 19.3566 16.676 19.0846 15.876C18.8286 15.076 18.7006 14.212 18.7006 13.284ZM27.1006 11.916C27.0846 11.612 27.0286 11.316 26.9326 11.028C26.8526 10.74 26.7166 10.484 26.5246 10.26C26.3486 10.036 26.1166 9.852 25.8286 9.708C25.5566 9.564 25.2126 9.492 24.7966 9.492C24.3966 9.492 24.0526 9.564 23.7646 9.708C23.4766 9.836 23.2366 10.012 23.0446 10.236C22.8526 10.46 22.7006 10.724 22.5886 11.028C22.4926 11.316 22.4206 11.612 22.3726 11.916H27.1006ZM45.6042 13.164C45.6042 14.156 45.4602 15.068 45.1722 15.9C44.8842 16.716 44.4682 17.42 43.9242 18.012C43.3802 18.588 42.7242 19.036 41.9562 19.356C41.2042 19.676 40.3562 19.836 39.4122 19.836C38.4842 19.836 37.6362 19.676 36.8682 19.356C36.1162 19.036 35.4682 18.588 34.9242 18.012C34.3802 17.42 33.9562 16.716 33.6522 15.9C33.3482 15.068 33.1962 14.156 33.1962 13.164C33.1962 12.172 33.3482 11.268 33.6522 10.452C33.9722 9.636 34.4042 8.94 34.9482 8.364C35.5082 7.788 36.1642 7.34 36.9162 7.02C37.6842 6.7 38.5162 6.54 39.4122 6.54C40.3242 6.54 41.1562 6.7 41.9082 7.02C42.6762 7.34 43.3322 7.788 43.8762 8.364C44.4202 8.94 44.8443 9.636 45.1483 10.452C45.4523 11.268 45.6042 12.172 45.6042 13.164ZM41.9562 13.164C41.9562 12.06 41.7322 11.196 41.2842 10.572C40.8522 9.932 40.2282 9.612 39.4122 9.612C38.5962 9.612 37.9642 9.932 37.5162 10.572C37.0682 11.196 36.8442 12.06 36.8442 13.164C36.8442 14.268 37.0682 15.148 37.5162 15.804C37.9642 16.444 38.5962 16.764 39.4122 16.764C40.2282 16.764 40.8522 16.444 41.2842 15.804C41.7322 15.148 41.9562 14.268 41.9562 13.164ZM54.6384 19.716C53.7264 19.716 52.8144 19.684 51.9024 19.62C51.0064 19.572 50.0704 19.444 49.0944 19.236V3.108C49.8624 2.964 50.7024 2.86 51.6144 2.796C52.5264 2.716 53.3744 2.676 54.1584 2.676C55.2144 2.676 56.1824 2.756 57.0624 2.916C57.9584 3.06 58.7264 3.316 59.3664 3.684C60.0064 4.052 60.5024 4.54 60.8544 5.148C61.2224 5.74 61.4064 6.476 61.4064 7.356C61.4064 8.684 60.7664 9.732 59.4864 10.5C60.5424 10.9 61.2624 11.444 61.6464 12.132C62.0304 12.82 62.2224 13.596 62.2224 14.46C62.2224 16.204 61.5824 17.516 60.3024 18.396C59.0384 19.276 57.1504 19.716 54.6384 19.716ZM52.7424 12.252V16.548C53.0144 16.58 53.3104 16.604 53.6304 16.62C53.9504 16.636 54.3024 16.644 54.6864 16.644C55.8064 16.644 56.7104 16.484 57.3984 16.164C58.0864 15.844 58.4304 15.252 58.4304 14.388C58.4304 13.62 58.1424 13.076 57.5664 12.756C56.9904 12.42 56.1664 12.252 55.0944 12.252H52.7424ZM52.7424 9.396H54.5664C55.7184 9.396 56.5424 9.252 57.0384 8.964C57.5344 8.66 57.7824 8.18 57.7824 7.524C57.7824 6.852 57.5264 6.38 57.0144 6.108C56.5024 5.836 55.7504 5.7 54.7584 5.7C54.4384 5.7 54.0944 5.708 53.7264 5.724C53.3584 5.724 53.0304 5.74 52.7424 5.772V9.396ZM70.2834 17.004C70.6354 17.004 70.9714 16.996 71.2914 16.98C71.6114 16.964 71.8674 16.94 72.0594 16.908V14.196C71.9154 14.164 71.6994 14.132 71.4114 14.1C71.1234 14.068 70.8594 14.052 70.6194 14.052C70.2834 14.052 69.9634 14.076 69.6594 14.124C69.3714 14.156 69.1154 14.228 68.8914 14.34C68.6674 14.452 68.4914 14.604 68.3634 14.796C68.2354 14.988 68.1714 15.228 68.1714 15.516C68.1714 16.076 68.3554 16.468 68.7234 16.692C69.1074 16.9 69.6274 17.004 70.2834 17.004ZM69.9954 6.54C71.0514 6.54 71.9314 6.66 72.6354 6.9C73.3394 7.14 73.8994 7.484 74.3154 7.932C74.7474 8.38 75.0514 8.924 75.2274 9.564C75.4034 10.204 75.4914 10.916 75.4914 11.7V19.14C74.9794 19.252 74.2674 19.38 73.3554 19.524C72.4434 19.684 71.3394 19.764 70.0434 19.764C69.2274 19.764 68.4834 19.692 67.8114 19.548C67.1554 19.404 66.5874 19.172 66.1074 18.852C65.6274 18.516 65.2594 18.084 65.0034 17.556C64.7474 17.028 64.6194 16.38 64.6194 15.612C64.6194 14.876 64.7634 14.252 65.0514 13.74C65.3554 13.228 65.7554 12.82 66.2514 12.516C66.7474 12.212 67.3154 11.996 67.9554 11.868C68.5954 11.724 69.2594 11.652 69.9474 11.652C70.4114 11.652 70.8194 11.676 71.1714 11.724C71.5394 11.756 71.8354 11.804 72.0594 11.868V11.532C72.0594 10.924 71.8754 10.436 71.5074 10.068C71.1394 9.7 70.4994 9.516 69.5874 9.516C68.9794 9.516 68.3794 9.564 67.7874 9.66C67.1954 9.74 66.6834 9.86 66.2514 10.02L65.7954 7.14C66.0034 7.076 66.2594 7.012 66.5634 6.948C66.8834 6.868 67.2274 6.804 67.5954 6.756C67.9634 6.692 68.3474 6.644 68.7474 6.612C69.1634 6.564 69.5794 6.54 69.9954 6.54ZM79.205 7.308C79.813 7.132 80.597 6.972 81.557 6.828C82.517 6.668 83.525 6.588 84.581 6.588C85.653 6.588 86.541 6.732 87.245 7.02C87.965 7.292 88.533 7.684 88.949 8.196C89.365 8.708 89.661 9.316 89.837 10.02C90.013 10.724 90.101 11.508 90.101 12.372V19.5H86.525V12.804C86.525 11.652 86.373 10.836 86.069 10.356C85.765 9.876 85.197 9.636 84.365 9.636C84.109 9.636 83.837 9.652 83.549 9.684C83.261 9.7 83.005 9.724 82.781 9.756V19.5H79.205V7.308ZM97.3938 11.436C97.7458 11.052 98.1058 10.652 98.4738 10.236C98.8578 9.82 99.2258 9.412 99.5778 9.012C99.9298 8.596 100.258 8.204 100.562 7.836C100.882 7.468 101.154 7.148 101.378 6.876H105.626C104.778 7.852 103.946 8.788 103.13 9.684C102.33 10.564 101.45 11.476 100.49 12.42C100.97 12.852 101.466 13.372 101.978 13.98C102.49 14.572 102.986 15.188 103.466 15.828C103.946 16.468 104.386 17.108 104.786 17.748C105.186 18.388 105.522 18.972 105.794 19.5H101.69C101.434 19.084 101.138 18.628 100.802 18.132C100.482 17.62 100.138 17.116 99.7698 16.62C99.4018 16.108 99.0098 15.62 98.5938 15.156C98.1938 14.692 97.7938 14.3 97.3938 13.98V19.5H93.8178V1.452L97.3938 0.875999V11.436Z" fill="#B4387A"/>
</svg>
